<svg xmlns="http://www.w3.org/2000/svg" version="1.1" xmlns:xlink="http://www.w3.org/1999/xlink" width="1000" height="1000"><style>
    #light-icon {
      display: inline;
    }
    #dark-icon {
      display: none;
    }

    @media (prefers-color-scheme: dark) {
      #light-icon {
        display: none;
      }
      #dark-icon {
        display: inline;
      }
    }
  </style><g id="light-icon"><svg xmlns="http://www.w3.org/2000/svg" version="1.1" xmlns:xlink="http://www.w3.org/1999/xlink" width="1000" height="1000"><g clip-path="url(#SvgjsClipPath1122)"><rect width="1000" height="1000" fill="#ffffff"></rect><g transform="matrix(1.953125,0,0,1.953125,0,0)"><svg xmlns="http://www.w3.org/2000/svg" version="1.1" viewBox="0 0 512 512" width="512" height="512"><defs>
    <style>
      .cls-1 {
        fill: #122f5b;
      }

      .cls-2 {
        fill: #d70c18;
      }
    </style>
  <clipPath id="SvgjsClipPath1122"><rect width="1000" height="1000" x="0" y="0" rx="350" ry="350"></rect></clipPath></defs><g>
    <g id="_レイヤー_1" data-name="レイヤー_1">
      <path class="cls-1" d="M219.61,441.16h292.39l-169.59-279.71-37.31,61.53-48.91-80.58-49.07,80.32-37.3-61.52L0,441.16h186.21l69.73-114.14,51.98,85.64h-70.89l-17.41,28.51ZM256.01,272.21l-85.79,140.44H50.63l119.18-196.47,20.57,33.93-72.23,118.24h33.4l104.55-171.14,103.89,171.14h33.35l-71.57-117.9,20.63-34.03,118.97,196.23h-120.12l-85.25-140.44Z"></path>
      <polygon class="cls-2" points="303.15 70.84 209.07 70.84 186.46 108.11 203.14 135.58 225.12 99.35 287.11 99.35 309.25 135.85 325.97 108.47 303.15 70.84"></polygon>
    </g>
  </g></svg></g></g></svg></g><g id="dark-icon"><svg xmlns="http://www.w3.org/2000/svg" version="1.1" xmlns:xlink="http://www.w3.org/1999/xlink" width="1000" height="1000"><g clip-path="url(#SvgjsClipPath1123)"><rect width="1000" height="1000" fill="#ffffff"></rect><g transform="matrix(1.3671875,0,0,1.3671875,150,150)"><svg xmlns="http://www.w3.org/2000/svg" version="1.1" viewBox="0 0 512 512" width="512" height="512"><defs>
    <style>
      .cls-1 {
        fill: #122f5b;
      }

      .cls-2 {
        fill: #d70c18;
      }
    </style>
  <clipPath id="SvgjsClipPath1123"><rect width="1000" height="1000" x="0" y="0" rx="350" ry="350"></rect></clipPath></defs><g>
    <g id="_レイヤー_1" data-name="レイヤー_1">
      <path class="cls-1" d="M219.61,441.16h292.39l-169.59-279.71-37.31,61.53-48.91-80.58-49.07,80.32-37.3-61.52L0,441.16h186.21l69.73-114.14,51.98,85.64h-70.89l-17.41,28.51ZM256.01,272.21l-85.79,140.44H50.63l119.18-196.47,20.57,33.93-72.23,118.24h33.4l104.55-171.14,103.89,171.14h33.35l-71.57-117.9,20.63-34.03,118.97,196.23h-120.12l-85.25-140.44Z"></path>
      <polygon class="cls-2" points="303.15 70.84 209.07 70.84 186.46 108.11 203.14 135.58 225.12 99.35 287.11 99.35 309.25 135.85 325.97 108.47 303.15 70.84"></polygon>
    </g>
  </g></svg></g></g></svg></g></svg>