<?xml version="1.0" encoding="UTF-8"?>
<svg xmlns="http://www.w3.org/2000/svg" version="1.1" viewBox="0 0 130 32">
  <defs>
    <style>
      .cls-1 {
        fill: #122f5b;
      }

      .cls-2 {
        fill: #d70c18;
      }
    </style>
  </defs>
  <!-- Generator: Adobe Illustrator 28.6.0, SVG Export Plug-In . SVG Version: 1.2.0 Build 709)  -->
  <g>
    <g id="_レイヤー_1" data-name="レイヤー_1">
      <path class="cls-1" d="M22.53,29.04h21.64l-12.55-20.7-2.76,4.55-3.62-5.96-3.63,5.95-2.76-4.55L6.28,29.04h13.78l5.16-8.45,3.85,6.34h-5.25l-1.29,2.11ZM25.22,16.53l-6.35,10.4h-8.85l8.82-14.54,1.52,2.51-5.35,8.75h2.47l7.74-12.67,7.69,12.67h2.47l-5.3-8.73,1.53-2.52,8.81,14.52h-8.89l-6.31-10.4Z"/>
      <polygon class="cls-2" points="28.71 3.52 21.75 3.52 20.08 6.28 21.31 8.32 22.94 5.63 27.53 5.63 29.17 8.34 30.4 6.31 28.71 3.52"/>
      <g>
        <g>
          <path class="cls-1" d="M59.43,12.1h-6.62v2.42h5.37v2.49h-5.37v5.41h-2.57v-12.84h9.19v2.51Z"/>
          <path class="cls-1" d="M71.28,16.75c0,3.72-1.94,5.87-5.21,5.87s-5.19-2.09-5.19-5.83v-7.21h2.57v7.17c0,2.05.99,3.36,2.62,3.36s2.64-1.27,2.64-3.32v-7.21h2.57v7.17Z"/>
          <path class="cls-1" d="M81.37,17.07c0,3.36-1.5,5.56-4.86,5.56-2.57,0-4.27-1.54-4.92-3.8l2.51-.68c.5,1.3,1.16,1.93,2.4,1.93,1.58,0,2.29-1.01,2.29-2.93v-7.56h2.57v7.48Z"/>
          <path class="cls-1" d="M86.23,22.42h-2.57v-12.84h2.57v12.84Z"/>
          <path class="cls-1" d="M101.4,22.42h-2.95l-2.29-4.62h-2.59v4.62h-2.57v-12.84h5.98c2.42,0,4.42,1.34,4.42,4.07,0,1.93-.83,3.14-2.46,3.78l2.46,4.99ZM98.76,13.71c0-1.16-.7-1.63-1.83-1.63h-3.36v3.3h3.36c1.19,0,1.83-.55,1.83-1.67Z"/>
          <path class="cls-1" d="M114.37,22.42h-2.82l-1.01-2.86h-4.7l-1.01,2.86h-2.75l4.92-12.84h2.49l4.88,12.84ZM109.65,17.12l-.83-2.33c-.26-.75-.51-1.52-.64-2-.13.48-.39,1.25-.64,2l-.83,2.33h2.93Z"/>
          <path class="cls-1" d="M125.01,17.45c0,3.3-2.18,5.17-5.15,5.17-3.36,0-5.61-2.57-5.61-6.62s2.35-6.62,5.7-6.62c2.62,0,4.02,1.23,4.86,3.21l-2.44,1.01c-.48-.95-1.06-1.67-2.46-1.67-1.93,0-3.03,1.69-3.03,4.07s1.12,4.11,3.04,4.11c1.76,0,2.37-.83,2.51-1.94h-2.04v-2.4h4.6v1.69Z"/>
        </g>
        <g>
          <g>
            <path class="cls-1" d="M52.21,29.1h-1.97v-2.96h1.97v.43h-1.53v.81h1.38v.43h-1.38v.86h1.53v.43Z"/>
            <path class="cls-1" d="M76.09,29.1h-1.97v-2.96h1.97v.43h-1.53v.81h1.38v.43h-1.38v.86h1.53v.43Z"/>
            <path class="cls-1" d="M60.53,29.1h-1.97v-2.96h1.97v.43h-1.53v.81h1.38v.43h-1.38v.86h1.53v.43Z"/>
            <path class="cls-1" d="M55.14,29.1h-.42l-1.18-1.86c-.07-.11-.17-.29-.22-.36,0,.11,0,.52,0,.69v1.54h-.43v-2.96h.45l1.13,1.81c.08.12.2.34.25.42,0-.11,0-.53,0-.7v-1.53h.43v2.96Z"/>
            <path class="cls-1" d="M57.93,26.58h-.86v2.53h-.44v-2.53h-.86v-.44h2.17v.44Z"/>
            <path class="cls-1" d="M63.45,27.02c0,.47-.25.77-.65.87l.6,1.21h-.51l-.59-1.17h-.67v1.17h-.44v-2.96h1.3c.52,0,.95.27.95.88ZM63,27.04c0-.31-.2-.48-.5-.48h-.86v.95h.86c.3,0,.5-.15.5-.47Z"/>
            <path class="cls-1" d="M66.37,27.07c0,.61-.41.93-.98.93h-.77v1.1h-.44v-2.96h1.24c.55,0,.95.31.95.93ZM65.92,27.07c0-.33-.2-.51-.51-.51h-.8v1.02h.8c.34,0,.51-.19.51-.51Z"/>
            <path class="cls-1" d="M69.23,27.02c0,.47-.25.77-.65.87l.6,1.21h-.51l-.59-1.17h-.67v1.17h-.44v-2.96h1.3c.52,0,.95.27.95.88ZM68.79,27.04c0-.31-.2-.48-.5-.48h-.86v.95h.86c.3,0,.5-.15.5-.47Z"/>
            <path class="cls-1" d="M70.51,29.1h-.44v-2.96h.44v2.96Z"/>
            <path class="cls-1" d="M73.41,28.25c0,.53-.34.9-1.1.9-.43,0-.8-.19-1.05-.48l.32-.31c.2.22.49.35.77.35.41,0,.61-.14.61-.43,0-.23-.17-.34-.67-.49-.63-.19-.93-.34-.93-.87s.43-.82.98-.82c.4,0,.71.15.97.4l-.31.32c-.19-.19-.4-.28-.69-.28-.35,0-.49.17-.49.37s.14.31.65.46c.58.18.95.36.95.89Z"/>
            <path class="cls-1" d="M80.71,29.1h-.47l-.25-.7h-1.18l-.25.7h-.46l1.07-2.96h.47l1.08,2.96ZM79.86,28l-.24-.68c-.07-.21-.19-.55-.22-.68-.03.13-.14.47-.22.69l-.24.68h.91Z"/>
            <path class="cls-1" d="M81.8,29.1h-.44v-2.96h.44v2.96Z"/>
            <path class="cls-1" d="M86.33,27.62c0,1.04-.67,1.48-1.44,1.48h-.81v-2.96h.81c.8,0,1.44.44,1.44,1.48ZM85.87,27.62c0-.62-.29-1.05-.99-1.05h-.36v2.1h.36c.7,0,.99-.43.99-1.05Z"/>
            <path class="cls-1" d="M89.2,27.62c0,.92-.52,1.53-1.27,1.53s-1.26-.6-1.26-1.52.52-1.53,1.26-1.53,1.26.6,1.26,1.52ZM88.75,27.62c0-.67-.35-1.09-.82-1.09s-.8.41-.8,1.08.34,1.09.82,1.09.8-.41.8-1.08Z"/>
            <path class="cls-1" d="M91.83,28.58c-.21.36-.57.57-1.02.57-.77,0-1.25-.63-1.25-1.53s.49-1.53,1.25-1.53c.48,0,.8.19,1.01.55l-.39.25c-.15-.24-.31-.36-.61-.36-.52,0-.8.42-.8,1.08s.28,1.08.8,1.08c.31,0,.5-.13.65-.37l.37.25Z"/>
            <path class="cls-1" d="M94.66,27.87c0,.83-.4,1.28-1.14,1.28s-1.11-.47-1.11-1.29v-1.72h.44v1.7c0,.56.23.86.68.86s.69-.29.69-.83v-1.73h.44v1.73Z"/>
            <path class="cls-1" d="M98.18,29.1h-.44v-1.57c0-.18,0-.44,0-.52-.03.08-.12.3-.19.47l-.72,1.67-.71-1.67c-.07-.17-.16-.38-.19-.47,0,.08,0,.34,0,.52v1.57h-.42v-2.96h.46l.66,1.58c.07.17.16.39.2.51.04-.12.13-.33.2-.51l.65-1.58h.47v2.96Z"/>
            <path class="cls-1" d="M103.8,29.1h-.42l-1.18-1.86c-.07-.11-.17-.29-.22-.36,0,.11,0,.52,0,.69v1.54h-.43v-2.96h.45l1.13,1.81c.08.12.2.34.25.42,0-.11,0-.53,0-.7v-1.53h.43v2.96Z"/>
            <path class="cls-1" d="M106.43,26.58h-.86v2.53h-.44v-2.53h-.86v-.44h2.17v.44Z"/>
            <path class="cls-1" d="M110.56,28.25c0,.53-.34.9-1.1.9-.43,0-.8-.19-1.05-.48l.32-.31c.2.22.49.35.77.35.41,0,.61-.14.61-.43,0-.23-.17-.34-.67-.49-.63-.19-.93-.34-.93-.87s.43-.82.98-.82c.4,0,.71.15.97.4l-.31.32c-.19-.19-.4-.28-.69-.28-.35,0-.49.17-.49.37s.14.31.65.46c.58.18.95.36.95.89Z"/>
            <path class="cls-1" d="M116.17,29.1h-.47l-.25-.7h-1.18l-.25.7h-.46l1.07-2.96h.47l1.08,2.96ZM115.31,28l-.24-.68c-.07-.21-.19-.55-.22-.68-.03.13-.14.47-.22.69l-.24.68h.91Z"/>
            <path class="cls-1" d="M118.96,27.02c0,.47-.25.77-.65.87l.6,1.21h-.51l-.59-1.17h-.67v1.17h-.44v-2.96h1.3c.52,0,.95.27.95.88ZM118.51,27.04c0-.31-.2-.48-.5-.48h-.86v.95h.86c.3,0,.5-.15.5-.47Z"/>
            <path class="cls-1" d="M121.91,28.58c-.21.36-.57.57-1.02.57-.77,0-1.25-.63-1.25-1.53s.49-1.53,1.25-1.53c.48,0,.8.19,1.01.55l-.39.25c-.15-.24-.31-.36-.61-.36-.52,0-.8.42-.8,1.08s.28,1.08.8,1.08c.31,0,.5-.13.65-.37l.37.25Z"/>
            <path class="cls-1" d="M125.01,29.1h-.44v-1.32h-1.36v1.32h-.44v-2.96h.44v1.2h1.36v-1.2h.44v2.96Z"/>
          </g>
          <path class="cls-1" d="M100.97,29.1h-1.97v-2.96h1.97v.43h-1.53v.81h1.38v.43h-1.38v.86h1.53v.43Z"/>
          <path class="cls-1" d="M113.24,29.1h-1.97v-2.96h1.97v.43h-1.53v.81h1.38v.43h-1.38v.86h1.53v.43Z"/>
        </g>
      </g>
    </g>
  </g>
</svg>